<?xml version="1.0" encoding="UTF-8" standalone="no"?>
<svg
   xmlns:dc="http://purl.org/dc/elements/1.1/"
   xmlns:cc="http://creativecommons.org/ns#"
   xmlns:rdf="http://www.w3.org/1999/02/22-rdf-syntax-ns#"
   xmlns:svg="http://www.w3.org/2000/svg"
   xmlns="http://www.w3.org/2000/svg"
   xmlns:sodipodi="http://sodipodi.sourceforge.net/DTD/sodipodi-0.dtd"
   xmlns:inkscape="http://www.inkscape.org/namespaces/inkscape"
   inkscape:export-ydpi="48"
   inkscape:export-xdpi="48"
   inkscape:export-filename="/Users/lima/code/rust/blank/res/icon256x256.png"
   inkscape:version="1.0 (4035a4f, 2020-05-01)"
   sodipodi:docname="icon.ink.svg"
   version="1.1"
   width="512"
   viewBox="0 0 512 512"
   height="512"
   enable-background="new 0 0 512 512"
   id="Capa_1">
  <metadata
     id="metadata182">
    <rdf:RDF>
      <cc:Work
         rdf:about="">
        <dc:format>image/svg+xml</dc:format>
        <dc:type
           rdf:resource="http://purl.org/dc/dcmitype/StillImage" />
        <dc:title></dc:title>
      </cc:Work>
    </rdf:RDF>
  </metadata>
  <defs
     id="defs180" />
  <sodipodi:namedview
     inkscape:current-layer="g175"
     inkscape:window-maximized="1"
     inkscape:window-y="383"
     inkscape:window-x="0"
     inkscape:cy="256"
     inkscape:cx="134.44354"
     inkscape:zoom="1.4355469"
     showgrid="false"
     id="namedview178"
     inkscape:window-height="1395"
     inkscape:window-width="2560"
     inkscape:pageshadow="2"
     inkscape:pageopacity="0"
     guidetolerance="10"
     gridtolerance="10"
     objecttolerance="10"
     borderopacity="1"
     bordercolor="#666666"
     pagecolor="#ffffff" />
  <g
     id="g175">
    <path
       id="path120"
       fill="#e6f7ff"
       d="m195.399 436c.746 4.097.601 8.965.601 15.099 0 34.201 26.4 60.901 60 60.901 32.999 0 60-27.001 60-60 0-7.138-.141-11.923.601-16l-60.601-30z" />
    <path
       id="path122"
       fill="#cef"
       d="m316 452c0-7.139-.141-11.924.601-16l-60.601-30v106c32.999 0 60-27.001 60-60z" />
    <g
       id="Idea_2_">
      <g
         id="g126">
        <path
           id="path124"
           fill="#ffe666"
           d="m363.7 307.3c-29.1 38.4-45.6 82.8-47.1 128.7h-121.2c-1.8-44.4-18.3-88.5-49.2-131.7-20.7-28.8-29.1-64.2-23.7-99.6 11.87-76.76 72.72-113.68 133.5-113.44 66.82.24 133.55 45.41 134.98 131.91.258 31.49-8.806 59.394-27.28 84.13z" />
      </g>
      <g
         id="g130">
        <path
           id="path128"
           fill="#ffe666"
           d="m256 61c-8.291 0-15-6.709-15-15v-31c0-8.291 6.709-15 15-15s15 6.709 15 15v31c0 8.291-6.709 15-15 15z" />
      </g>
      <g
         id="g134">
        <path
           id="path132"
           fill="#fabe2c"
           d="m398.91 143.5c-4.16-7.178-1.699-16.348 5.479-20.493l25.986-15c7.178-4.16 16.348-1.699 20.479 5.493 4.16 7.178 1.699 16.348-5.479 20.493l-25.986 15c-7.242 4.157-16.399 1.625-20.479-5.493z" />
      </g>
      <g
         id="g138">
        <path
           id="path136"
           fill="#ffe666"
           d="m61.146 338.5c-4.16-7.178-1.699-16.348 5.478-20.493l25.987-15c7.148-4.131 16.348-1.685 20.479 5.493 4.16 7.178 1.699 16.348-5.479 20.493l-25.987 15c-7.235 4.155-16.395 1.63-20.478-5.493z" />
      </g>
      <g
         id="g142">
        <path
           id="path140"
           fill="#fabe2c"
           d="m338.5 83.104c-7.178-4.146-9.639-13.315-5.479-20.493l15-25.972c4.102-7.192 13.301-9.58 20.479-5.493 7.178 4.146 9.639 13.315 5.479 20.493l-15 25.972c-4.084 7.146-13.26 9.638-20.479 5.493z" />
      </g>
      <g
         id="g146">
        <path
           id="path144"
           fill="#ffe666"
           d="m153.021 77.611-15-25.972c-4.16-7.178-1.699-16.348 5.479-20.493 7.148-4.131 16.348-1.714 20.479 5.493l15 25.972c4.16 7.178 1.699 16.348-5.479 20.493-7.209 4.139-16.391 1.661-20.479-5.493z" />
      </g>
      <g
         id="g150">
        <path
           id="path148"
           fill="#fabe2c"
           d="m430.374 343.993-25.986-15c-7.178-4.146-9.639-13.315-5.479-20.493 4.131-7.163 13.359-9.58 20.479-5.493l25.986 15c7.178 4.146 9.639 13.315 5.479 20.493-4.074 7.108-13.226 9.656-20.479 5.493z" />
      </g>
      <g
         id="g154">
        <path
           id="path152"
           fill="#ffe666"
           d="m92.611 148.993-25.987-15c-7.177-4.146-9.638-13.315-5.478-20.493 4.131-7.178 13.33-9.609 20.478-5.493l25.987 15c7.178 4.146 9.639 13.315 5.479 20.493-4.081 7.12-13.238 9.65-20.479 5.493z" />
      </g>
      <g
         id="g158">
        <path
           id="path156"
           fill="#fabe2c"
           d="m466 241h-30c-8.291 0-15-6.709-15-15s6.709-15 15-15h30c8.291 0 15 6.709 15 15s-6.709 15-15 15z" />
      </g>
      <g
         id="g162">
        <path
           id="path160"
           fill="#ffe666"
           d="m76 241h-30c-8.291 0-15-6.709-15-15s6.709-15 15-15h30c8.291 0 15 6.709 15 15s-6.709 15-15 15z" />
      </g>
    </g>
    <g
       id="g171"
       fill="#fabe2c">
      <path
         id="path165"
         d="m271 46v-31c0-8.291-6.709-15-15-15v61c8.291 0 15-6.709 15-15z" />
      <path
         id="path167"
         d="m363.7 307.3c-29.1 38.4-45.6 82.8-47.1 128.7h-60.6v-344.74c66.82.24 133.55 45.41 134.98 131.91.258 31.49-8.806 59.394-27.28 84.13z" />
    </g>
  </g>
</svg>
